<svg width="64" height="64" viewBox="0 0 64 64" fill="none" xmlns="http://www.w3.org/2000/svg">
<g id="wind 1" clip-path="url(#clip0_112_312)">
<path id="Vector" d="M0 32C0 31.2927 0.280952 30.6145 0.781049 30.1144C1.28115 29.6143 1.95942 29.3333 2.66667 29.3333H18.6667C19.3739 29.3333 20.0522 29.6143 20.5523 30.1144C21.0524 30.6145 21.3333 31.2927 21.3333 32C21.3333 32.7072 21.0524 33.3855 20.5523 33.8856C20.0522 34.3857 19.3739 34.6666 18.6667 34.6666H2.66667C1.95942 34.6666 1.28115 34.3857 0.781049 33.8856C0.280952 33.3855 0 32.7072 0 32ZM55.696 29.6186C57.0252 27.9577 57.9369 26.0022 58.3544 23.9163C58.772 21.8303 58.6834 19.6746 58.096 17.63C57.5085 15.5853 56.4395 13.7113 54.9784 12.1651C53.5173 10.6188 51.7067 9.44546 49.6986 8.74331C47.6905 8.04116 45.5432 7.83072 43.437 8.12962C41.3307 8.42853 39.3268 9.22807 37.5933 10.4612C35.8598 11.6943 34.4473 13.3251 33.4741 15.2168C32.5008 17.1085 31.9954 19.206 32 21.3333C32 22.0406 32.281 22.7188 32.7811 23.2189C33.2811 23.719 33.9594 24 34.6667 24C35.3739 24 36.0522 23.719 36.5523 23.2189C37.0524 22.7188 37.3333 22.0406 37.3333 21.3333C37.3333 19.7511 37.8025 18.2043 38.6816 16.8887C39.5606 15.5732 40.8101 14.5478 42.2719 13.9423C43.7337 13.3368 45.3422 13.1783 46.8941 13.487C48.4459 13.7957 49.8714 14.5576 50.9902 15.6765C52.109 16.7953 52.8709 18.2207 53.1796 19.7726C53.4883 21.3244 53.3299 22.933 52.7244 24.3948C52.1189 25.8566 51.0935 27.106 49.7779 27.9851C48.4623 28.8641 46.9156 29.3333 45.3333 29.3333H29.3333C28.6261 29.3333 27.9478 29.6143 27.4477 30.1144C26.9476 30.6145 26.6667 31.2927 26.6667 32C26.6667 32.7072 26.9476 33.3855 27.4477 33.8856C27.9478 34.3857 28.6261 34.6666 29.3333 34.6666H53.3333C54.7478 34.6666 56.1044 35.2285 57.1046 36.2287C58.1048 37.2289 58.6667 38.5855 58.6667 40C58.6427 46.232 49.9173 47.0613 47.848 41.7786C47.6125 41.1117 47.1217 40.5657 46.4836 40.2606C45.8454 39.9555 45.1123 39.9165 44.4453 40.152C43.7784 40.3875 43.2323 40.8783 42.9273 41.5164C42.6222 42.1545 42.5832 42.8877 42.8187 43.5546C46.9733 54.44 63.872 52.2106 64 40C63.9954 37.5851 63.1715 35.2433 61.663 33.3575C60.1546 31.4717 58.0509 30.1535 55.696 29.6186ZM29.3333 42.6666H2.66667C1.95942 42.6666 1.28115 42.9476 0.781049 43.4477C0.280952 43.9478 0 44.6261 0 45.3333C0 46.0406 0.280952 46.7188 0.781049 47.2189C1.28115 47.719 1.95942 48 2.66667 48H29.3333C30.7478 48 32.1044 48.5619 33.1046 49.5621C34.1048 50.5623 34.6667 51.9188 34.6667 53.3333C34.6427 59.5653 25.9173 60.3946 23.848 55.112C23.7314 54.7817 23.5509 54.4777 23.3168 54.2172C23.0826 53.9568 22.7995 53.745 22.4836 53.5939C22.1676 53.4429 21.825 53.3555 21.4753 53.3369C21.1255 53.3183 20.7756 53.3687 20.4453 53.4853C20.1151 53.6019 19.8111 53.7824 19.5506 54.0165C19.2901 54.2507 19.0783 54.5338 18.9273 54.8497C18.7762 55.1657 18.6889 55.5083 18.6703 55.8581C18.6516 56.2078 18.7021 56.5577 18.8187 56.888C22.9733 67.7733 39.872 65.544 40 53.3333C40 50.5043 38.8762 47.7912 36.8758 45.7908C34.8754 43.7905 32.1623 42.6666 29.3333 42.6666ZM2.66667 21.3333H18.6667C21.4956 21.3333 24.2088 20.2095 26.2091 18.2091C28.2095 16.2087 29.3333 13.4956 29.3333 10.6666C29.2053 -1.54936 12.3013 -3.77069 8.152 7.11197C7.91649 7.7789 7.95556 8.51208 8.26062 9.1502C8.56568 9.78832 9.11174 10.2791 9.77867 10.5146C10.4456 10.7502 11.1788 10.7111 11.8169 10.406C12.455 10.101 12.9458 9.5549 13.1813 8.88797C15.2533 3.60264 23.976 4.43464 24 10.6666C24 12.0811 23.4381 13.4377 22.4379 14.4379C21.4377 15.4381 20.0812 16 18.6667 16H2.66667C1.95942 16 1.28115 16.2809 0.781049 16.781C0.280952 17.2811 0 17.9594 0 18.6666C0 19.3739 0.280952 20.0522 0.781049 20.5523C1.28115 21.0524 1.95942 21.3333 2.66667 21.3333Z" fill="#1AC86B"/>
</g>
<defs>
<clipPath id="clip0_112_312">
<rect width="64" height="64" fill="white"/>
</clipPath>
</defs>
</svg>
