<svg width="200" height="227" viewBox="0 0 200 227" fill="none" xmlns="http://www.w3.org/2000/svg">
<path fill-rule="evenodd" clip-rule="evenodd" d="M162.712 113.583C162.712 148.613 134.643 177.078 99.9991 177.078C65.4036 177.078 37.288 148.659 37.288 113.583C37.288 105.982 38.5933 98.7128 41.0175 91.9611C49.7373 67.5546 72.8642 50.0877 99.9991 50.0877C108.765 50.0877 117.111 51.9294 124.711 55.2335C147.046 64.9117 162.712 87.4305 162.712 113.583Z" fill="url(#paint0_linear_2_2261)"/>
<path fill-rule="evenodd" clip-rule="evenodd" d="M99.9991 39.3707C96.2235 39.3707 93.0988 36.4921 92.7725 32.6686L90.3482 5.19202C90.1159 2.40729 92.26 1.02533e-05 95.0567 1.02533e-05H104.942C107.74 1.02533e-05 109.884 2.40733 109.652 5.2399L107.227 32.6686C106.901 36.4921 103.776 39.3707 99.9991 39.3707Z" fill="url(#paint1_linear_2_2261)"/>
<path fill-rule="evenodd" clip-rule="evenodd" d="M36.7755 76.3358C34.9099 79.6399 30.8541 80.9144 27.451 79.3102L2.73859 67.6962C0.220373 66.5157 -0.758559 63.4013 0.64064 60.9463L5.58312 52.3069C6.98061 49.8519 10.1053 49.1428 12.3895 50.7965L34.6776 66.6577C37.7544 68.8291 38.6411 73.0317 36.7755 76.3358Z" fill="url(#paint2_linear_2_2261)"/>
<path fill-rule="evenodd" clip-rule="evenodd" d="M36.7755 150.264C38.6411 153.569 37.7544 157.77 34.6776 159.943L12.3895 175.804C10.1053 177.41 6.98061 176.701 5.58312 174.293L0.64064 165.608C-0.758559 163.153 0.220373 160.037 2.73859 158.856L27.451 147.242C30.8541 145.684 34.9099 146.959 36.7755 150.264Z" fill="url(#paint3_linear_2_2261)"/>
<path fill-rule="evenodd" clip-rule="evenodd" d="M99.9991 187.228C103.776 187.228 106.901 190.108 107.227 193.932L109.652 221.407C109.884 224.193 107.74 226.648 104.942 226.648H95.0567C92.26 226.648 90.1159 224.239 90.3482 221.407L92.7725 193.932C93.0988 190.108 96.2696 187.228 99.9991 187.228Z" fill="url(#paint4_linear_2_2261)"/>
<path fill-rule="evenodd" clip-rule="evenodd" d="M163.224 150.264C165.09 146.959 169.146 145.684 172.549 147.29L197.261 158.904C199.78 160.083 200.758 163.199 199.359 165.654L194.417 174.34C193.018 176.796 189.895 177.504 187.609 175.851L165.322 159.989C162.292 157.77 161.359 153.569 163.224 150.264Z" fill="url(#paint5_linear_2_2261)"/>
<path fill-rule="evenodd" clip-rule="evenodd" d="M163.224 76.3357C161.359 73.0316 162.246 68.829 165.322 66.6575L187.609 50.7964C189.895 49.1905 193.018 49.8996 194.417 52.3068L199.359 60.9924C200.759 63.4474 199.78 66.5635 197.261 67.744L172.549 79.3561C169.146 80.9142 165.09 79.6398 163.224 76.3357Z" fill="url(#paint6_linear_2_2261)"/>
<path fill-rule="evenodd" clip-rule="evenodd" d="M63.8181 50.1815C62.3728 51.0323 60.4611 50.5591 59.5761 49.1428L51.5551 36.3501C50.3899 34.5085 50.9964 32.1012 52.862 31.0147C54.7259 29.9298 57.104 30.6372 58.0829 32.5267L65.0311 45.9327C65.8238 47.4446 65.2635 49.3324 63.8181 50.1815Z" fill="#F7E426"/>
<path fill-rule="evenodd" clip-rule="evenodd" d="M27.8233 113.866C27.8233 115.566 26.4703 116.983 24.7926 117.077L9.87291 117.69C7.72713 117.786 5.95551 116.038 5.95551 113.866C5.95551 111.695 7.72713 109.947 9.87291 110.043L24.7926 110.656C26.4703 110.75 27.8233 112.166 27.8233 113.866Z" fill="#F7E426"/>
<path fill-rule="evenodd" clip-rule="evenodd" d="M64.2845 177.268C65.7298 178.117 66.2885 180.006 65.4975 181.517L58.5493 194.924C57.5704 196.858 55.1923 197.521 53.3267 196.434C51.4628 195.348 50.9024 192.941 52.0214 191.099L59.9946 178.306C60.9274 176.89 62.8391 176.417 64.2845 177.268Z" fill="#F7E426"/>
<path fill-rule="evenodd" clip-rule="evenodd" d="M136.74 176.984C138.186 176.135 140.098 176.607 140.984 178.023L148.957 190.817C150.123 192.657 149.516 195.064 147.65 196.151C145.787 197.238 143.408 196.529 142.43 194.641L135.481 181.233C134.736 179.723 135.295 177.833 136.74 176.984Z" fill="#F7E426"/>
<path fill-rule="evenodd" clip-rule="evenodd" d="M172.783 113.299C172.783 111.6 174.134 110.185 175.814 110.089L190.733 109.476C192.878 109.382 194.649 111.128 194.649 113.299C194.649 115.473 192.878 117.218 190.733 117.124L175.814 116.51C174.088 116.416 172.783 114.999 172.783 113.299Z" fill="#F7E426"/>
<path fill-rule="evenodd" clip-rule="evenodd" d="M136.274 49.8996C134.829 49.0488 134.27 47.161 135.063 45.6508L142.009 32.2432C142.988 30.3075 145.366 29.6464 147.232 30.7329C149.096 31.8178 149.656 34.2249 148.537 36.0666L140.564 48.8609C139.631 50.2772 137.767 50.7487 136.274 49.8996Z" fill="#F7E426"/>
<defs>
<linearGradient id="paint0_linear_2_2261" x1="66.6849" y1="157.995" x2="140.489" y2="59.59" gradientUnits="userSpaceOnUse">
<stop stop-color="#F14735"/>
<stop offset="1" stop-color="#F7E427"/>
</linearGradient>
<linearGradient id="paint1_linear_2_2261" x1="99.9991" y1="39.3707" x2="99.9991" y2="-0.000842764" gradientUnits="userSpaceOnUse">
<stop stop-color="#F14735"/>
<stop offset="1" stop-color="#F7E427"/>
</linearGradient>
<linearGradient id="paint2_linear_2_2261" x1="18.8729" y1="80.0004" x2="18.8729" y2="49.9001" gradientUnits="userSpaceOnUse">
<stop stop-color="#F14735"/>
<stop offset="1" stop-color="#F7E427"/>
</linearGradient>
<linearGradient id="paint3_linear_2_2261" x1="18.8729" y1="176.666" x2="18.8729" y2="146.582" gradientUnits="userSpaceOnUse">
<stop stop-color="#F14735"/>
<stop offset="1" stop-color="#F7E427"/>
</linearGradient>
<linearGradient id="paint4_linear_2_2261" x1="99.9991" y1="226.648" x2="99.9991" y2="187.229" gradientUnits="userSpaceOnUse">
<stop stop-color="#F14735"/>
<stop offset="1" stop-color="#F7E427"/>
</linearGradient>
<linearGradient id="paint5_linear_2_2261" x1="181.132" y1="176.747" x2="181.132" y2="146.599" gradientUnits="userSpaceOnUse">
<stop stop-color="#F14735"/>
<stop offset="1" stop-color="#F7E427"/>
</linearGradient>
<linearGradient id="paint6_linear_2_2261" x1="181.127" y1="80.0173" x2="181.127" y2="49.933" gradientUnits="userSpaceOnUse">
<stop stop-color="#F14735"/>
<stop offset="1" stop-color="#F7E427"/>
</linearGradient>
</defs>
</svg>
